<svg width="165" height="43" viewBox="0 0 165 43" fill="none" xmlns="http://www.w3.org/2000/svg">
<path d="M17.328 16.216C17.68 16.28 17.872 16.44 17.904 16.696C17.968 16.952 17.968 17.208 17.904 17.464C17.52 18.84 17.152 20.12 16.8 21.304C16.448 22.488 15.84 23.688 14.976 24.904C14.144 26.024 13.12 26.824 11.904 27.304C10.688 27.752 9.312 27.896 7.776 27.736C6.912 27.64 6.016 27.368 5.088 26.92C4.192 26.472 3.456 25.832 2.88 25C2.144 23.944 1.536 22.904 1.056 21.88C0.608 20.856 0.304 19.576 0.144 18.04C0.08 17.496 0.032 16.872 0 16.168C0 15.432 0.016 14.68 0.048 13.912C0.08 13.144 0.128 12.376 0.192 11.608C0.256 10.84 0.368 10.136 0.528 9.496C0.752 8.408 1.072 7.368 1.488 6.376C1.936 5.352 2.496 4.456 3.168 3.688C3.84 2.888 4.64 2.248 5.568 1.768C6.496 1.288 7.584 1.016 8.832 0.951998C9.952 1.016 10.944 1.304 11.808 1.816C12.672 2.296 13.408 3.048 14.016 4.072C14.208 4.392 14.384 4.776 14.544 5.224C14.704 5.672 14.784 6.12 14.784 6.568C14.784 7.016 14.688 7.448 14.496 7.864C14.304 8.248 13.968 8.536 13.488 8.728C13.264 8.792 13.232 8.648 13.392 8.296C13.52 7.944 13.568 7.752 13.536 7.72C13.504 7.688 13.408 7.832 13.248 8.152C13.12 8.408 13.024 8.568 12.96 8.632C12.896 8.696 12.832 8.712 12.768 8.68C12.32 8.68 12.032 8.488 11.904 8.104C11.808 7.688 11.728 7.304 11.664 6.952C11.568 6.536 11.472 6.2 11.376 5.944C11.28 5.688 11.152 5.464 10.992 5.272C10.864 5.048 10.704 4.824 10.512 4.6C10.32 4.344 10.08 4.04 9.792 3.688C9.44 4.008 9.136 4.456 8.88 5.032C8.624 5.608 8.4 6.264 8.208 7C8.112 7.352 8.016 7.912 7.92 8.68C7.824 9.416 7.728 10.2 7.632 11.032C7.536 11.864 7.456 12.664 7.392 13.432C7.328 14.2 7.296 14.776 7.296 15.16C7.296 15.736 7.296 16.488 7.296 17.416C7.296 18.344 7.344 19.304 7.44 20.296C7.536 21.288 7.696 22.232 7.92 23.128C8.176 23.992 8.544 24.664 9.024 25.144C9.824 25.4 10.608 25.4 11.376 25.144C12.144 24.856 12.784 24.36 13.296 23.656C13.456 23.432 13.648 23.096 13.872 22.648C14.096 22.2 14.32 21.688 14.544 21.112C14.8 20.504 15.04 19.864 15.264 19.192C15.488 18.488 15.68 17.768 15.84 17.032C15.84 17 15.872 16.936 15.936 16.84C16 16.744 16.08 16.648 16.176 16.552C16.304 16.424 16.464 16.328 16.656 16.264C16.848 16.2 17.072 16.184 17.328 16.216ZM4.848 4.84C4.944 4.68 5.024 4.536 5.088 4.408C5.152 4.248 5.168 4.184 5.136 4.216C4.912 4.44 4.688 4.76 4.464 5.176C4.24 5.56 4.032 5.976 3.84 6.424C3.68 6.84 3.536 7.256 3.408 7.672C3.312 8.056 3.248 8.36 3.216 8.584L3.024 9.736L3.36 8.728C3.552 8.088 3.792 7.4 4.08 6.664C4.368 5.896 4.624 5.288 4.848 4.84ZM6.816 5.416C6.912 5.16 6.992 4.952 7.056 4.792C7.152 4.6 7.184 4.488 7.152 4.456C7.152 4.424 7.088 4.472 6.96 4.6C6.864 4.696 6.736 4.824 6.576 4.984C6.48 5.144 6.4 5.304 6.336 5.464C6.272 5.624 6.192 5.928 6.096 6.376C6.032 6.664 5.952 7 5.856 7.384C5.792 7.736 5.744 8.024 5.712 8.248L5.568 9.016L5.808 8.104C5.904 7.816 5.984 7.56 6.048 7.336C6.112 7.112 6.176 6.904 6.24 6.712C6.336 6.52 6.416 6.328 6.48 6.136C6.576 5.912 6.688 5.672 6.816 5.416ZM39.03 16.744C39.318 16.808 39.526 16.968 39.654 17.224C39.814 17.448 39.862 17.704 39.798 17.992C39.798 18.024 39.734 18.248 39.606 18.664C39.51 19.08 39.366 19.624 39.174 20.296C39.014 20.968 38.806 21.752 38.55 22.648C38.326 23.512 38.054 24.408 37.734 25.336C37.382 26.456 37.03 27.464 36.678 28.36C36.326 29.256 35.974 30.072 35.622 30.808C34.662 32.76 33.718 33.992 32.79 34.504C32.278 34.728 31.718 34.824 31.11 34.792C30.502 34.76 29.926 34.568 29.382 34.216C28.838 33.896 28.39 33.464 28.038 32.92C27.686 32.376 27.414 31.784 27.222 31.144C27.03 30.536 26.902 29.896 26.838 29.224C26.806 28.52 26.806 27.832 26.838 27.16C26.902 26.04 27.046 24.712 27.27 23.176C27.526 21.608 27.766 20.152 27.99 18.808C28.246 17.464 28.438 16.408 28.566 15.64C28.726 14.872 28.726 14.712 28.566 15.16C28.342 15.8 28.022 16.632 27.606 17.656C27.19 18.648 26.694 19.688 26.118 20.776C25.542 21.864 24.902 22.92 24.198 23.944C23.494 24.968 22.758 25.832 21.99 26.536C21.222 27.208 20.438 27.64 19.638 27.832C18.838 27.992 18.038 27.784 17.238 27.208C16.278 26.504 15.67 25.256 15.414 23.464C15.126 21.64 15.254 19.32 15.798 16.504C16.182 14.584 16.598 13.08 17.046 11.992C17.526 10.904 18.038 10.184 18.582 9.832C18.646 9.8 18.79 9.752 19.014 9.688C19.27 9.624 19.398 9.656 19.398 9.784C19.398 9.976 19.238 10.36 18.918 10.936C18.63 11.48 18.406 12.056 18.246 12.664C18.15 12.984 18.022 13.48 17.862 14.152C17.734 14.792 17.59 15.48 17.43 16.216C17.302 16.952 17.19 17.688 17.094 18.424C16.998 19.16 16.934 19.784 16.902 20.296C16.87 20.776 16.854 20.984 16.854 20.92C16.886 20.824 16.982 20.328 17.142 19.432C17.302 18.472 17.478 17.528 17.67 16.6C17.862 15.672 18.07 14.792 18.294 13.96C18.518 13.128 18.742 12.376 18.966 11.704C19.19 11 19.414 10.424 19.638 9.976C19.67 9.912 19.766 9.816 19.926 9.688C20.086 9.528 20.134 9.512 20.07 9.64C20.07 9.704 20.054 9.816 20.022 9.976C19.99 10.136 20.022 10.088 20.118 9.832C20.246 9.64 20.342 9.544 20.406 9.544C20.31 9.512 20.31 9.512 20.406 9.544C20.502 9.544 20.63 9.592 20.79 9.688C20.982 9.752 21.158 9.848 21.318 9.976C21.478 10.104 21.59 10.264 21.654 10.456C21.782 10.84 21.814 11.304 21.75 11.848C21.718 12.36 21.638 12.904 21.51 13.48C21.414 14.056 21.302 14.616 21.174 15.16C21.046 15.704 20.95 16.184 20.886 16.6C20.63 18.008 20.39 19.416 20.166 20.824C19.974 22.2 19.91 23.72 19.974 25.384C20.454 24.936 20.886 24.488 21.27 24.04C21.686 23.56 22.07 23.08 22.422 22.6C23.542 20.936 24.502 19.192 25.302 17.368C26.134 15.512 27.062 13.672 28.086 11.848C28.438 11.24 28.694 10.84 28.854 10.648C29.014 10.424 29.174 10.312 29.334 10.312C29.462 10.312 29.526 10.28 29.526 10.216C29.59 10.152 29.702 10.12 29.862 10.12H30.486C30.646 10.088 30.806 10.104 30.966 10.168C31.094 10.232 31.19 10.264 31.254 10.264C31.414 10.264 31.59 10.376 31.782 10.6C32.006 10.792 32.166 10.984 32.262 11.176C32.55 11.816 32.63 12.904 32.502 14.44C32.438 15.56 32.326 16.664 32.166 17.752C32.006 18.84 31.846 19.944 31.686 21.064C31.558 22.152 31.43 23.256 31.302 24.376C31.206 25.496 31.174 26.632 31.206 27.784C31.238 28.712 31.302 29.512 31.398 30.184C31.494 30.824 31.622 31.4 31.782 31.912L31.878 32.152C32.102 32.248 32.342 32.152 32.598 31.864C32.854 31.576 33.238 30.92 33.75 29.896C34.07 29.224 34.39 28.456 34.71 27.592C35.062 26.696 35.414 25.72 35.766 24.664C36.054 23.768 36.326 22.888 36.582 22.024C36.838 21.16 37.046 20.408 37.206 19.768C37.366 19.096 37.494 18.552 37.59 18.136C37.718 17.72 37.782 17.512 37.782 17.512C37.846 17.224 37.99 17.016 38.214 16.888C38.47 16.728 38.742 16.68 39.03 16.744ZM16.326 18.712C16.838 16.024 17.334 13.944 17.814 12.472C17.878 12.216 17.942 12.008 18.006 11.848C18.07 11.688 18.086 11.608 18.054 11.608C17.83 11.96 17.606 12.472 17.382 13.144C17.19 13.784 16.998 14.456 16.806 15.16C16.646 15.864 16.518 16.536 16.422 17.176C16.326 17.816 16.278 18.312 16.278 18.664C16.278 18.824 16.294 18.84 16.326 18.712ZM18.534 21.112C18.63 20.6 18.726 20.008 18.822 19.336C18.95 18.664 19.078 17.992 19.206 17.32C19.334 16.616 19.462 15.96 19.59 15.352C19.718 14.712 19.83 14.184 19.926 13.768C20.054 13.288 20.15 12.84 20.214 12.424C20.31 11.976 20.374 11.672 20.406 11.512C20.47 11.096 20.47 10.888 20.406 10.888C20.342 10.888 20.246 11.096 20.118 11.512C19.926 12.28 19.734 13.128 19.542 14.056C19.35 14.952 19.174 15.864 19.014 16.792C18.854 17.688 18.71 18.552 18.582 19.384C18.486 20.184 18.422 20.856 18.39 21.4V22.12L18.534 21.112ZM30.726 17.704C30.47 19.432 30.262 20.824 30.102 21.88C29.974 22.936 29.926 23.592 29.958 23.848C29.958 23.944 29.958 23.976 29.958 23.944C29.958 23.912 29.974 23.784 30.006 23.56C30.038 23.4 30.102 22.936 30.198 22.168C30.326 21.4 30.454 20.552 30.582 19.624C30.742 18.696 30.87 17.816 30.966 16.984C31.062 16.12 31.142 15.56 31.206 15.304C31.238 15.016 31.254 14.776 31.254 14.584C31.254 14.36 31.254 14.232 31.254 14.2C31.222 14.136 31.206 14.184 31.206 14.344C31.206 14.408 31.158 14.776 31.062 15.448C30.966 16.088 30.854 16.84 30.726 17.704ZM28.566 23.176C28.47 24.072 28.422 24.568 28.422 24.664C28.454 24.76 28.518 24.392 28.614 23.56C28.678 23.176 28.774 22.568 28.902 21.736C29.03 20.872 29.158 20.024 29.286 19.192C29.414 18.328 29.526 17.608 29.622 17.032C29.718 16.424 29.782 15.912 29.814 15.496C29.878 15.08 29.926 14.728 29.958 14.44C29.99 14.152 30.022 13.88 30.054 13.624C30.118 13.176 30.134 12.92 30.102 12.856C30.07 12.792 30.022 12.968 29.958 13.384C29.958 13.544 29.91 13.976 29.814 14.68C29.718 15.384 29.59 16.168 29.43 17.032C29.27 17.992 29.142 18.776 29.046 19.384C28.95 19.992 28.87 20.52 28.806 20.968C28.742 21.384 28.694 21.768 28.662 22.12C28.63 22.44 28.598 22.792 28.566 23.176ZM52.4201 16.792C52.6761 16.856 52.8681 17.032 52.9961 17.32C53.1561 17.576 53.1881 17.832 53.0921 18.088C52.9321 18.376 52.6921 18.952 52.3721 19.816C52.0841 20.648 51.7321 21.608 51.3161 22.696C50.9321 23.784 50.4841 24.936 49.9721 26.152C49.4601 27.336 48.9001 28.44 48.2921 29.464C47.7161 30.456 47.0921 31.304 46.4201 32.008C45.7481 32.712 45.0441 33.112 44.3081 33.208C42.9641 33.336 41.8921 33.144 41.0921 32.632C40.3241 32.12 39.7641 31.416 39.4121 30.52C39.0601 29.592 38.8841 28.552 38.8841 27.4C38.8841 26.216 38.9961 25.032 39.2201 23.848C39.4761 22.632 39.8121 21.464 40.2281 20.344C40.6441 19.192 41.0921 18.2 41.5721 17.368C41.7321 17.112 41.8601 16.856 41.9561 16.6C42.0521 16.312 42.0841 16.168 42.0521 16.168C42.0201 16.456 41.8601 16.776 41.5721 17.128C41.2841 17.48 40.9161 17.784 40.4681 18.04C40.0201 18.296 39.5241 18.456 38.9801 18.52C38.4361 18.584 37.8921 18.472 37.3481 18.184C36.5161 17.832 35.9561 17.176 35.6681 16.216C35.3801 15.224 35.2681 14.2 35.3321 13.144C35.3961 12.056 35.6201 11.064 36.0041 10.168C36.3561 9.24 36.7721 8.648 37.2521 8.392C37.6041 8.2 37.9881 8.088 38.4041 8.056C38.8521 8.024 39.2681 8.056 39.6521 8.152C40.0361 8.216 40.3881 8.36 40.7081 8.584C41.0281 8.808 41.2521 9.08 41.3801 9.4C41.5721 9.912 41.6521 10.584 41.6201 11.416C41.5881 12.216 41.4281 13.016 41.1401 13.816C41.5561 13.464 41.9881 13.096 42.4361 12.712C42.8841 12.328 43.2681 12.104 43.5881 12.04C45.1241 11.752 46.1481 11.864 46.6601 12.376C47.1721 12.888 47.1881 13.992 46.7081 15.688C46.4201 16.68 46.0841 17.8 45.7001 19.048C45.3481 20.296 45.0281 21.576 44.7401 22.888C44.4841 24.2 44.3081 25.496 44.2121 26.776C44.1161 28.056 44.2121 29.224 44.5001 30.28C44.7241 30.088 44.9641 29.88 45.2201 29.656C45.4761 29.4 45.7321 29.08 45.9881 28.696C46.2761 28.28 46.5801 27.784 46.9001 27.208C47.2521 26.632 47.6361 25.928 48.0521 25.096C48.5001 24.168 48.9001 23.256 49.2521 22.36C49.6361 21.432 49.9561 20.616 50.2121 19.912C50.5001 19.176 50.7241 18.584 50.8841 18.136C51.0441 17.656 51.1241 17.416 51.1241 17.416C51.1881 17.16 51.3481 16.968 51.6041 16.84C51.8921 16.712 52.1641 16.696 52.4201 16.792ZM38.5001 15.64C38.6601 14.52 38.8361 13.432 39.0281 12.376C39.2521 11.288 39.1881 10.328 38.8361 9.496C38.6761 9.848 38.5481 10.152 38.4521 10.408C38.3881 10.632 38.3241 10.824 38.2601 10.984C38.1641 11.176 38.0841 11.512 38.0201 11.992C37.9561 12.472 37.9241 12.968 37.9241 13.48C37.9241 13.96 37.9561 14.424 38.0201 14.872C38.1161 15.288 38.2761 15.544 38.5001 15.64ZM45.4601 15.112C45.3961 14.952 45.2681 15.08 45.0761 15.496C44.8841 15.88 44.6761 16.36 44.4521 16.936C44.2601 17.512 44.0681 18.072 43.8761 18.616C43.7161 19.16 43.6201 19.496 43.5881 19.624C43.1721 20.552 42.8201 21.336 42.5321 21.976C42.2761 22.616 42.0681 23.208 41.9081 23.752C41.7481 24.264 41.6361 24.744 41.5721 25.192C41.5401 25.64 41.5241 26.104 41.5241 26.584V27.448L41.5721 26.776C41.8281 25.464 42.1961 24.024 42.6761 22.456C43.1561 20.856 43.9081 18.92 44.9321 16.648C45.0921 16.264 45.2201 15.928 45.3161 15.64C45.4441 15.32 45.4921 15.144 45.4601 15.112ZM41.0921 22.456C40.7081 23.448 40.4841 24.216 40.4201 24.76C40.3561 25.304 40.2921 25.832 40.2281 26.344C40.1961 26.504 40.1801 26.648 40.1801 26.776C40.2121 26.904 40.2281 27.016 40.2281 27.112V27.448C40.2921 27.512 40.3401 27.48 40.3721 27.352C40.4041 27.224 40.4521 26.84 40.5161 26.2C40.6761 25.112 40.9801 23.768 41.4281 22.168C41.9081 20.536 42.5161 18.92 43.2521 17.32C43.3801 17.064 43.4921 16.824 43.5881 16.6C43.6841 16.344 43.7641 16.136 43.8281 15.976C43.9241 15.784 44.0041 15.592 44.0681 15.4C44.0361 15.4 43.8921 15.704 43.6361 16.312C43.3801 16.92 43.0761 17.624 42.7241 18.424C42.4041 19.192 42.0841 19.976 41.7641 20.776C41.4441 21.544 41.2201 22.104 41.0921 22.456ZM65.7806 16.504C66.0686 16.568 66.2926 16.728 66.4526 16.984C66.6446 17.208 66.7086 17.448 66.6446 17.704C66.6446 17.736 66.5966 17.96 66.5006 18.376C66.4366 18.792 66.3246 19.336 66.1646 20.008C66.0366 20.68 65.8606 21.448 65.6366 22.312C65.4446 23.176 65.2206 24.072 64.9646 25C64.6446 26.12 64.3246 27.128 64.0046 28.024C63.7166 28.92 63.3966 29.736 63.0446 30.472C62.1166 32.456 61.1726 33.72 60.2126 34.264C59.7646 34.52 59.3166 34.648 58.8686 34.648C58.3886 34.648 57.9086 34.536 57.4286 34.312C56.9486 34.12 56.4846 33.848 56.0366 33.496C54.7566 32.536 53.7166 30.984 52.9166 28.84C52.1166 26.696 51.5886 24.072 51.3326 20.968C51.3006 20.072 51.2526 18.872 51.1886 17.368C51.1246 15.832 51.1726 14.184 51.3326 12.424C51.4926 10.632 51.8286 8.792 52.3406 6.904C52.8846 4.984 53.7486 3.176 54.9326 1.48C55.4126 0.999998 56.2126 0.775998 57.3326 0.808C58.1966 0.936 58.9006 1.288 59.4446 1.864C60.0206 2.408 60.4526 3.08 60.7406 3.88C61.0606 4.68 61.2526 5.528 61.3166 6.424C61.3806 7.288 61.3486 8.088 61.2206 8.824C61.1246 9.464 60.9646 10.12 60.7406 10.792C60.5166 11.464 60.2286 12.184 59.8766 12.952C59.5566 13.72 59.1406 14.552 58.6286 15.448C58.1166 16.312 57.5246 17.288 56.8526 18.376L56.3726 19.096C56.3726 19.8 56.3886 20.52 56.4206 21.256C56.4526 21.992 56.4686 22.696 56.4686 23.368C56.5006 24.008 56.5326 24.584 56.5646 25.096C56.5966 25.576 56.6286 25.944 56.6606 26.2C56.7246 26.744 56.8206 27.368 56.9486 28.072C57.1086 28.776 57.2686 29.352 57.4286 29.8C57.4926 30.024 57.5886 30.28 57.7166 30.568C57.8446 30.856 57.9566 31.128 58.0526 31.384C58.1806 31.64 58.2926 31.864 58.3886 32.056C58.5166 32.28 58.6126 32.408 58.6766 32.44C58.8046 32.568 58.9806 32.568 59.2046 32.44C59.3326 32.376 59.5086 32.216 59.7326 31.96C59.9886 31.704 60.2766 31.288 60.5966 30.712C60.9166 30.104 61.2686 29.304 61.6526 28.312C62.0686 27.32 62.5006 26.024 62.9486 24.424C63.2046 23.528 63.4286 22.664 63.6206 21.832C63.8126 20.968 63.9726 20.216 64.1006 19.576C64.2606 18.904 64.3726 18.376 64.4366 17.992C64.5326 17.576 64.5806 17.368 64.5806 17.368C64.6446 17.08 64.7886 16.856 65.0126 16.696C65.2366 16.504 65.4926 16.44 65.7806 16.504ZM56.1806 16.264L56.4686 15.736C56.7566 15.288 57.0286 14.792 57.2846 14.248C57.5726 13.704 57.8286 13.16 58.0526 12.616C58.3086 12.072 58.5326 11.544 58.7246 11.032C58.9166 10.52 59.0606 10.072 59.1566 9.688C59.4446 8.76 59.5886 7.704 59.5886 6.52C59.6206 5.336 59.3326 4.28 58.7246 3.352C58.5646 3.128 58.4206 2.952 58.2926 2.824C58.1646 2.664 58.0046 2.76 57.8126 3.112C57.4606 3.72 57.1566 4.616 56.9006 5.8C56.6446 6.984 56.4686 8.28 56.3726 9.688C56.3086 10.424 56.2606 11.224 56.2286 12.088C56.1966 12.952 56.1806 13.672 56.1806 14.248V15.688V16.264ZM56.3726 17.176C56.4686 17.048 56.6126 16.808 56.8046 16.456C57.4126 15.464 57.9086 14.552 58.2926 13.72C58.7086 12.888 59.0446 12.136 59.3006 11.464C59.3326 11.368 59.3646 11.288 59.3966 11.224C59.4286 11.128 59.4606 11.048 59.4926 10.984C59.5246 10.888 59.5406 10.808 59.5406 10.744C59.5086 10.744 59.3646 11.016 59.1086 11.56C58.8846 12.136 58.6286 12.728 58.3406 13.336C58.0526 13.944 57.6366 14.712 57.0926 15.64C56.7086 16.28 56.4686 16.728 56.3726 16.984V17.176ZM56.3726 18.136C56.5326 17.944 56.8046 17.512 57.1886 16.84C57.6046 16.168 58.0206 15.464 58.4366 14.728C58.5966 14.376 58.7886 13.976 59.0126 13.528C59.2366 13.08 59.4286 12.68 59.5886 12.328C59.6526 12.168 59.7006 12.008 59.7326 11.848C59.7966 11.688 59.8606 11.544 59.9246 11.416C59.9886 11.288 60.0366 11.16 60.0686 11.032C60.0366 11.064 60.0046 11.112 59.9726 11.176C59.9406 11.24 59.8926 11.368 59.8286 11.56C59.7006 11.88 59.5246 12.28 59.3006 12.76C59.0766 13.208 58.8206 13.704 58.5326 14.248C58.2446 14.76 57.9406 15.304 57.6206 15.88C57.3006 16.424 56.9806 16.952 56.6606 17.464C56.5966 17.56 56.5326 17.656 56.4686 17.752C56.4366 17.848 56.4046 17.928 56.3726 17.992V18.136ZM85.4258 16.6C85.7778 16.664 85.9698 16.824 86.0018 17.08C86.0658 17.336 86.0658 17.592 86.0018 17.848C85.8098 18.808 85.5538 19.624 85.2338 20.296C84.9138 20.968 84.5458 21.56 84.1298 22.072C83.7138 22.584 83.2498 23.064 82.7378 23.512C82.2258 23.928 81.6818 24.376 81.1058 24.856C80.9138 24.984 80.7858 25.096 80.7218 25.192L81.1538 27.304C81.3458 28.168 81.5218 29.128 81.6818 30.184C81.8738 31.208 81.9858 32.232 82.0178 33.256C82.0818 34.312 82.0498 35.336 81.9218 36.328C81.8258 37.352 81.5538 38.28 81.1058 39.112C80.6898 39.944 80.0818 40.664 79.2818 41.272C78.5138 41.912 77.5058 42.36 76.2578 42.616C75.4258 42.712 74.6098 42.664 73.8098 42.472C73.0098 42.312 72.3058 42.024 71.6978 41.608C71.0898 41.192 70.6098 40.648 70.2578 39.976C69.9058 39.304 69.7618 38.504 69.8258 37.576C69.9218 36.936 70.0818 36.264 70.3058 35.56C70.5618 34.888 70.8658 34.152 71.2178 33.352C71.5698 32.616 71.9858 31.848 72.4658 31.048C72.9458 30.248 73.6178 29.192 74.4818 27.88L76.0658 25.528L75.1058 19.144C74.5938 20.744 74.1298 22.04 73.7138 23.032C73.2978 24.024 72.8978 24.824 72.5138 25.432C72.1298 26.008 71.7458 26.44 71.3618 26.728C71.0098 27.016 70.6418 27.24 70.2578 27.4C69.6178 27.688 69.0098 27.8 68.4338 27.736C67.8578 27.64 67.3298 27.432 66.8498 27.112C66.3698 26.792 65.9538 26.376 65.6018 25.864C65.2498 25.32 64.9778 24.728 64.7858 24.088C64.5618 23.32 64.4337 22.44 64.4017 21.448C64.3377 20.424 64.3537 19.384 64.4497 18.328C64.5457 17.24 64.7058 16.184 64.9298 15.16C65.1538 14.104 65.4418 13.16 65.7938 12.328C66.1458 11.528 66.4818 10.936 66.8018 10.552C67.1218 10.168 67.4898 9.896 67.9058 9.736C67.9698 9.704 68.0178 9.688 68.0498 9.688C68.1138 9.656 68.1778 9.624 68.2418 9.592C68.3058 9.56 68.3698 9.544 68.4338 9.544C68.4658 9.544 68.4178 9.72 68.2898 10.072C68.1938 10.36 68.1138 10.584 68.0498 10.744C67.9858 10.904 67.9218 11.064 67.8578 11.224C67.7938 11.384 67.7138 11.576 67.6178 11.8C67.5538 11.992 67.4418 12.28 67.2818 12.664C67.1858 12.92 67.0898 13.272 66.9938 13.72C66.8978 14.136 66.8018 14.616 66.7058 15.16C66.6418 15.704 66.5778 16.28 66.5138 16.888C66.4498 17.464 66.4018 18.008 66.3698 18.52L66.3218 19.624L66.4658 18.76C66.5938 17.768 66.7698 16.728 66.9938 15.64C67.2498 14.552 67.5058 13.56 67.7617 12.664C68.0178 11.736 68.2578 10.984 68.4818 10.408C68.7058 9.832 68.8818 9.544 69.0098 9.544H69.2018C69.2018 9.576 69.1858 9.624 69.1538 9.688C69.0898 9.816 69.0578 9.912 69.0578 9.976C68.9618 10.264 68.9138 10.408 68.9138 10.408C68.9458 10.376 68.9778 10.312 69.0098 10.216C69.0738 10.088 69.1378 9.944 69.2018 9.784C69.2978 9.624 69.3778 9.544 69.4418 9.544C69.5698 9.512 69.6178 9.608 69.5858 9.832C69.5538 10.056 69.4578 10.632 69.2978 11.56C69.0098 13.128 68.7698 14.648 68.5778 16.12C68.3858 17.592 68.2738 18.76 68.2418 19.624C68.2098 20.168 68.1938 20.392 68.1938 20.296C68.2258 20.168 68.3218 19.576 68.4818 18.52C68.5458 18.072 68.6258 17.448 68.7218 16.648C68.8498 15.848 68.9778 15.096 69.1058 14.392C69.2338 13.688 69.3298 13.048 69.3938 12.472C69.4898 11.896 69.5378 11.544 69.5378 11.416C69.5378 11.192 69.5698 10.904 69.6338 10.552C69.7298 10.2 69.8258 9.944 69.9218 9.784C69.9858 9.72 70.0818 9.72 70.2098 9.784C70.6258 10.072 70.8818 10.456 70.9778 10.936C71.0738 11.416 71.0418 12.328 70.8818 13.672C70.8498 14.024 70.8018 14.504 70.7378 15.112C70.6738 15.688 70.5938 16.312 70.4978 16.984C70.4338 17.656 70.3538 18.312 70.2578 18.952C70.1618 19.592 70.0818 20.136 70.0178 20.584C69.9538 20.872 69.9058 21.208 69.8738 21.592C69.8418 21.976 69.8098 22.344 69.7778 22.696C69.7458 23.048 69.7298 23.368 69.7298 23.656C69.7298 23.912 69.7458 24.056 69.7778 24.088C69.8418 24.184 70.0018 24.008 70.2578 23.56C70.5458 23.112 70.8658 22.552 71.2178 21.88C71.6018 21.176 71.9698 20.456 72.3218 19.72C72.6738 18.952 72.9618 18.312 73.1858 17.8C73.4098 17.288 73.6498 16.76 73.9058 16.216C74.1938 15.672 74.4658 15.16 74.7218 14.68C75.0098 14.2 75.2338 13.8 75.3938 13.48C75.5858 13.128 75.6978 12.904 75.7298 12.808C75.7938 12.712 75.8898 12.616 76.0178 12.52C76.1458 12.424 76.2258 12.408 76.2578 12.472C76.2578 12.6 76.3218 12.568 76.4498 12.376L76.6898 12.184L76.7378 12.376L76.8338 12.616L76.9778 12.424C77.0738 12.296 77.2178 12.232 77.4098 12.232C77.6018 12.2 77.7298 12.232 77.7938 12.328C77.7938 12.392 77.8578 12.424 77.9858 12.424C78.0818 12.392 78.2098 12.44 78.3698 12.568C78.5618 12.696 78.7058 12.84 78.8018 13C78.8658 13.16 78.9298 13.512 78.9938 14.056C79.0898 14.568 79.1698 15.192 79.2338 15.928C79.2978 16.984 79.4098 18.056 79.5698 19.144C79.7618 20.232 79.9858 21.464 80.2418 22.84C81.2338 22.04 82.0178 21.256 82.5938 20.488C83.1698 19.688 83.6338 18.664 83.9858 17.416C83.9858 17.384 84.0018 17.32 84.0338 17.224C84.0978 17.128 84.1778 17.032 84.2738 16.936C84.4018 16.808 84.5618 16.712 84.7538 16.648C84.9458 16.584 85.1698 16.568 85.4258 16.6ZM74.2418 32.056C74.1778 32.152 74.1138 32.264 74.0498 32.392L73.6658 33.16C73.1538 34.184 72.7858 35 72.5618 35.608C72.3378 36.216 72.1938 36.856 72.1298 37.528H72.3218C72.5138 36.76 72.7378 35.96 72.9938 35.128C73.2818 34.296 73.5858 33.544 73.9058 32.872C74.0018 32.648 74.0818 32.456 74.1458 32.296C74.2418 32.136 74.2738 32.056 74.2418 32.056ZM71.3618 35.656C71.1058 36.296 70.9618 36.92 70.9297 37.528V38.392C71.0258 38.008 71.1378 37.544 71.2658 37C71.4258 36.488 71.5858 35.96 71.7458 35.416C71.9378 34.904 72.1298 34.408 72.3218 33.928C72.5138 33.448 72.6898 33.048 72.8498 32.728C72.9778 32.44 73.0258 32.28 72.9938 32.248C72.9938 32.248 72.9138 32.376 72.7538 32.632C72.6258 32.92 72.4658 33.256 72.2738 33.64C72.0818 34.024 71.8898 34.408 71.6978 34.792C71.5378 35.176 71.4258 35.464 71.3618 35.656ZM75.2498 40.456C76.1778 40.456 76.8178 40.072 77.1698 39.304C77.5538 38.568 77.7778 37.688 77.8418 36.664C77.9058 35.672 77.8738 34.664 77.7458 33.64C77.6178 32.648 77.5058 31.912 77.4098 31.432C77.3458 31.144 77.2818 30.872 77.2178 30.616C77.1858 30.36 77.1378 30.136 77.0738 29.944C77.0098 29.72 76.9618 29.512 76.9297 29.32C76.8978 29.288 76.7538 29.512 76.4978 29.992C76.2418 30.44 75.9538 30.968 75.6338 31.576C75.3458 32.216 75.0418 32.856 74.7218 33.496C74.4338 34.136 74.2418 34.6 74.1458 34.888C73.9858 35.272 73.8098 35.768 73.6178 36.376C73.4578 37.016 73.3618 37.624 73.3298 38.2C73.3298 38.808 73.4578 39.336 73.7138 39.784C74.0018 40.232 74.5138 40.456 75.2498 40.456ZM121.614 16.984C121.966 17.048 122.158 17.208 122.19 17.464C122.254 17.72 122.254 17.976 122.19 18.232C121.934 19.288 121.598 20.488 121.182 21.832C120.798 23.176 120.382 24.488 119.934 25.768C119.006 28.328 118.126 30.2 117.294 31.384C116.462 32.568 115.582 33.16 114.654 33.16H114.606C113.39 33 112.334 32.408 111.438 31.384C110.734 30.488 110.206 29.304 109.854 27.832C109.502 26.36 109.262 24.824 109.134 23.224C109.038 21.592 109.022 20.008 109.086 18.472C109.15 16.904 109.246 15.592 109.374 14.536V14.488C109.374 14.296 109.39 14.152 109.422 14.056C109.262 14.216 109.118 14.392 108.99 14.584C108.894 14.744 108.782 14.904 108.654 15.064C107.886 16.248 107.23 17.544 106.686 18.952C106.142 20.36 105.694 21.736 105.342 23.08C105.374 23.592 105.39 24.104 105.39 24.616C105.39 25.128 105.374 25.592 105.342 26.008C105.342 26.392 105.31 26.728 105.246 27.016C105.182 27.272 105.102 27.432 105.006 27.496C104.846 27.432 104.734 27.432 104.67 27.496C104.638 27.56 104.462 27.576 104.142 27.544C103.822 27.512 103.63 27.464 103.566 27.4C103.534 27.4 103.502 27.4 103.47 27.4C103.438 27.368 103.39 27.352 103.326 27.352C102.878 27.352 102.414 27.048 101.934 26.44C101.486 25.832 101.054 25.128 100.638 24.328C100.254 23.496 99.9176 22.68 99.6296 21.88C99.3736 21.048 99.1976 20.44 99.1016 20.056C98.8456 18.776 98.6696 17.448 98.5736 16.072C98.4776 14.664 98.4776 13.256 98.5736 11.848C98.6696 10.44 98.8776 9.064 99.1976 7.72C99.5176 6.344 99.9816 5.032 100.59 3.784C100.75 3.432 100.942 3.16 101.166 2.968C101.39 2.744 101.63 2.584 101.886 2.488C101.95 2.488 101.998 2.488 102.03 2.488C102.062 2.456 102.11 2.44 102.174 2.44C102.238 2.44 102.286 2.424 102.318 2.392C102.35 2.424 102.334 2.568 102.27 2.824C101.982 3.4 101.758 4.024 101.598 4.696C101.438 5.336 101.31 5.992 101.214 6.664C101.15 7.016 101.102 7.416 101.07 7.864C101.038 8.28 101.006 8.696 100.974 9.112C100.942 9.528 100.91 9.896 100.878 10.216C100.878 10.504 100.878 10.664 100.878 10.696C100.91 10.728 100.926 10.664 100.926 10.504C100.926 10.152 100.99 9.624 101.118 8.92C101.246 8.184 101.39 7.432 101.55 6.664C101.71 5.864 101.886 5.112 102.078 4.408C102.27 3.704 102.43 3.192 102.558 2.872C102.718 2.52 102.83 2.328 102.894 2.296C102.99 2.264 103.054 2.328 103.086 2.488C103.15 2.392 103.214 2.36 103.278 2.392C103.374 2.392 103.454 2.44 103.518 2.536C103.582 2.664 103.646 2.68 103.71 2.584C103.806 2.488 103.918 2.504 104.046 2.632C104.078 2.696 104.11 2.744 104.142 2.776C104.206 2.776 104.254 2.792 104.286 2.824C104.382 2.824 104.494 2.968 104.622 3.256C104.558 3.16 104.542 3.4 104.574 3.976C104.606 4.52 104.638 5.256 104.67 6.184C104.734 7.112 104.798 8.152 104.862 9.304C104.958 10.424 105.022 11.528 105.054 12.616C105.086 13.672 105.102 14.616 105.102 15.448C105.102 16.248 105.054 16.792 104.958 17.08C105.598 15.64 106.206 14.472 106.782 13.576C107.358 12.648 107.966 11.896 108.606 11.32C109.15 10.84 109.646 10.472 110.094 10.216C110.094 9.928 110.174 9.528 110.334 9.016C110.494 8.472 110.686 7.912 110.91 7.336C111.134 6.76 111.358 6.216 111.582 5.704C111.838 5.16 112.062 4.76 112.254 4.504C112.606 3.96 113.102 3.496 113.742 3.112C114.414 2.696 115.118 2.568 115.854 2.728C116.27 2.792 116.606 3 116.862 3.352C117.15 3.672 117.262 4.056 117.198 4.504C117.134 4.984 116.99 5.432 116.766 5.848C116.542 6.232 116.286 6.6 115.998 6.952C115.71 7.304 115.406 7.64 115.086 7.96C114.766 8.248 114.494 8.52 114.27 8.776C113.726 11.528 113.358 14.312 113.166 17.128C112.974 19.944 112.99 22.792 113.214 25.672C113.374 26.92 113.534 28.056 113.694 29.08C113.854 30.072 114.094 30.68 114.414 30.904C114.734 31.128 115.166 30.824 115.71 29.992C116.286 29.128 117.054 27.448 118.014 24.952C118.462 23.8 118.83 22.632 119.118 21.448C119.438 20.232 119.79 19.016 120.174 17.8C120.174 17.768 120.19 17.704 120.222 17.608C120.286 17.48 120.366 17.368 120.462 17.272C120.59 17.144 120.75 17.048 120.942 16.984C121.134 16.92 121.358 16.92 121.614 16.984ZM105.102 19.144C105.262 18.696 105.422 18.296 105.582 17.944C105.742 17.592 105.902 17.224 106.062 16.84C106.318 16.264 106.638 15.64 107.022 14.968C107.406 14.264 107.726 13.752 107.982 13.432C108.174 13.144 108.254 13 108.222 13C108.19 12.968 108.062 13.08 107.838 13.336C107.39 13.912 106.942 14.616 106.494 15.448C106.078 16.248 105.598 17.368 105.054 18.808V19V19.048C105.054 19.08 105.07 19.112 105.102 19.144ZM108.51 14.008C108.574 13.944 108.622 13.88 108.654 13.816C108.718 13.752 108.766 13.688 108.798 13.624L108.894 13.432C108.862 13.432 108.782 13.512 108.654 13.672C108.526 13.832 108.382 14.024 108.222 14.248C108.062 14.44 107.902 14.648 107.742 14.872C107.614 15.064 107.518 15.208 107.454 15.304C107.326 15.528 107.15 15.912 106.926 16.456C106.702 16.968 106.478 17.512 106.254 18.088C106.03 18.632 105.822 19.144 105.63 19.624C105.47 20.104 105.39 20.392 105.39 20.488C105.39 20.584 105.406 20.568 105.438 20.44C105.47 20.344 105.534 20.136 105.63 19.816C105.758 19.496 105.902 19.144 106.062 18.76C106.222 18.376 106.382 17.992 106.542 17.608C106.734 17.224 106.878 16.92 106.974 16.696C107.454 15.704 107.966 14.808 108.51 14.008ZM111.726 8.344C111.694 8.504 111.71 8.552 111.774 8.488C111.902 8.424 111.998 8.312 112.062 8.152C112.126 7.992 112.27 7.592 112.494 6.952C112.59 6.632 112.702 6.296 112.83 5.944C112.958 5.592 113.054 5.336 113.118 5.176C113.15 5.112 113.166 5.048 113.166 4.984C113.198 4.888 113.23 4.808 113.262 4.744C113.294 4.68 113.31 4.632 113.31 4.6C113.246 4.6 113.134 4.728 112.974 4.984C112.846 5.24 112.702 5.56 112.542 5.944C112.382 6.328 112.222 6.744 112.062 7.192C111.902 7.608 111.79 7.992 111.726 8.344ZM139.772 16.6C140.06 16.664 140.268 16.824 140.396 17.08C140.556 17.304 140.604 17.56 140.54 17.848C140.54 17.88 140.492 18.072 140.396 18.424C140.3 18.744 140.156 19.176 139.964 19.72C139.804 20.264 139.612 20.904 139.388 21.64C139.196 22.376 139.004 23.144 138.812 23.944C138.364 25.736 137.836 27.176 137.228 28.264C136.652 29.32 136.012 30.104 135.308 30.616C134.604 31.096 133.852 31.304 133.052 31.24C132.284 31.208 131.468 30.968 130.604 30.52C130.22 30.328 129.9 30.072 129.644 29.752C129.42 29.4 129.212 28.952 129.02 28.408C128.828 27.832 128.652 27.144 128.492 26.344C128.332 25.544 128.172 24.568 128.012 23.416L127.772 24.04C127.612 24.456 127.436 24.856 127.243 25.24C127.052 25.624 126.716 26.008 126.236 26.392C125.916 26.648 125.596 26.808 125.276 26.872C124.988 26.936 124.62 26.984 124.172 27.016C123.852 27.016 123.596 27.016 123.404 27.016C123.244 27.016 123.084 26.984 122.924 26.92C122.54 26.792 122.22 26.664 121.964 26.536C121.74 26.376 121.516 26.184 121.292 25.96C120.684 25.384 120.268 24.488 120.043 23.272C119.787 22.056 119.707 20.76 119.803 19.384C119.867 17.976 120.108 16.584 120.524 15.208C120.94 13.832 121.5 12.68 122.204 11.752C123.036 10.664 124.06 9.768 125.276 9.064C126.492 8.328 127.708 7.896 128.924 7.768C130.396 7.576 131.676 7.688 132.764 8.104C133.116 8.232 133.388 8.344 133.58 8.44C133.804 8.536 134.012 8.696 134.204 8.92C134.3 9.048 134.396 9.064 134.492 8.968C134.556 8.904 134.7 8.968 134.924 9.16C135.18 9.32 135.356 9.528 135.452 9.784C135.612 10.04 135.724 10.376 135.788 10.792C135.852 11.208 135.852 11.608 135.788 11.992C135.788 12.344 135.724 12.888 135.596 13.624C135.468 14.328 135.308 15.128 135.116 16.024C134.956 16.92 134.764 17.864 134.54 18.856C134.348 19.848 134.156 20.808 133.964 21.736C133.804 22.632 133.66 23.464 133.532 24.232C133.404 24.968 133.34 25.528 133.34 25.912C133.276 26.488 133.244 27 133.244 27.448C133.276 27.864 133.372 28.152 133.532 28.312C133.628 28.44 133.74 28.488 133.868 28.456C134.028 28.392 134.172 28.312 134.299 28.216C134.46 28.088 134.604 27.944 134.732 27.784C134.86 27.624 134.972 27.48 135.068 27.352C135.356 26.84 135.628 26.312 135.884 25.768C136.14 25.224 136.46 24.392 136.844 23.272C137.1 22.504 137.324 21.768 137.516 21.064C137.74 20.36 137.916 19.736 138.044 19.192C138.204 18.648 138.316 18.216 138.38 17.896C138.476 17.544 138.524 17.368 138.524 17.368C138.588 17.08 138.732 16.872 138.956 16.744C139.212 16.584 139.484 16.536 139.772 16.6ZM133.532 12.808C133.372 13.576 133.196 14.504 133.004 15.592C132.812 16.648 132.636 17.704 132.476 18.76C132.348 19.816 132.236 20.776 132.14 21.64C132.044 22.504 131.996 23.112 131.996 23.464C131.996 23.688 132.012 23.736 132.044 23.608C132.108 23.032 132.188 22.36 132.284 21.592C132.412 20.824 132.54 20.04 132.668 19.24C132.796 18.408 132.94 17.592 133.1 16.792C133.26 15.992 133.42 15.256 133.58 14.584C133.644 14.2 133.708 13.8 133.772 13.384C133.868 12.968 133.948 12.664 134.012 12.472C134.044 12.28 134.06 12.12 134.06 11.992C134.06 11.832 134.06 11.736 134.06 11.704C133.996 11.64 133.9 11.736 133.772 11.992C133.676 12.248 133.596 12.52 133.532 12.808ZM122.924 14.584C123.116 14.104 123.18 13.864 123.116 13.864C123.084 13.864 122.924 14.136 122.636 14.68C122.284 15.288 122.028 15.848 121.868 16.36C121.74 16.84 121.66 17.576 121.628 18.568C121.596 19.112 121.612 19.368 121.676 19.336C121.74 19.208 121.771 19.096 121.771 19C121.771 18.872 121.803 18.632 121.868 18.28C121.964 17.896 122.06 17.48 122.156 17.032C122.284 16.584 122.412 16.136 122.54 15.688C122.7 15.24 122.828 14.872 122.924 14.584ZM123.692 18.568C123.82 17.864 124.028 17.112 124.316 16.312C124.604 15.48 124.828 14.744 124.988 14.104C124.796 14.104 124.604 14.312 124.412 14.728C124.252 15.144 124.092 15.624 123.932 16.168C123.804 16.68 123.692 17.176 123.596 17.656C123.5 18.136 123.452 18.456 123.452 18.616C123.388 19.32 123.372 19.672 123.404 19.672C123.436 19.672 123.532 19.304 123.692 18.568ZM125.516 23.608C125.708 23.352 125.932 22.968 126.188 22.456C126.444 21.944 126.7 21.4 126.956 20.824C127.244 20.216 127.516 19.624 127.772 19.048C128.028 18.472 128.268 17.96 128.492 17.512C128.78 17 128.988 16.472 129.116 15.928C129.244 15.384 129.356 14.824 129.452 14.248C129.58 13.672 129.724 13.096 129.884 12.52C130.044 11.944 130.268 11.384 130.556 10.84C130.588 10.776 130.524 10.76 130.364 10.792C130.236 10.792 130.092 10.84 129.932 10.936C129.292 11.288 128.732 11.72 128.252 12.232C127.772 12.712 127.324 13.336 126.908 14.104C126.748 14.392 126.572 14.776 126.38 15.256C126.22 15.704 126.044 16.184 125.852 16.696C125.692 17.176 125.548 17.688 125.42 18.232C125.292 18.744 125.196 19.208 125.132 19.624C125.1 19.816 125.068 20.12 125.036 20.536C125.036 20.952 125.036 21.384 125.036 21.832C125.036 22.28 125.036 22.696 125.036 23.08C125.036 23.432 125.052 23.672 125.084 23.8L125.132 24.04L125.516 23.608ZM141.733 3.976C141.765 3.944 141.813 3.928 141.877 3.928C141.973 3.928 141.957 4.024 141.829 4.216C141.733 4.376 141.701 4.456 141.733 4.456C141.797 4.456 141.909 4.376 142.069 4.216C142.229 4.056 142.357 3.976 142.453 3.976C142.581 3.976 142.645 4.056 142.645 4.216C142.645 4.344 142.693 4.36 142.789 4.264C142.949 4.104 143.029 4.104 143.029 4.264C143.061 4.392 143.157 4.504 143.317 4.6C143.381 4.792 143.461 4.856 143.557 4.792C143.717 4.792 143.893 4.92 144.085 5.176C144.277 5.4 144.389 5.608 144.421 5.8C144.421 5.992 144.309 6.2 144.085 6.424C143.893 6.68 143.797 6.856 143.797 6.952C143.829 7.08 143.765 7.208 143.605 7.336C143.445 7.464 143.317 7.496 143.221 7.432C143.125 7.368 143.061 7.368 143.029 7.432C142.997 7.528 142.933 7.576 142.837 7.576C142.773 7.576 142.709 7.512 142.645 7.384C142.549 7.256 142.501 7.256 142.501 7.384C142.501 7.64 142.389 7.688 142.165 7.528C142.101 7.464 142.037 7.448 141.973 7.48C141.941 7.48 141.845 7.448 141.685 7.384C140.789 6.904 140.421 6.216 140.581 5.32C140.677 4.904 140.805 4.568 140.965 4.312C141.157 4.056 141.349 3.96 141.541 4.024C141.605 4.056 141.669 4.04 141.733 3.976ZM150.325 16.552C150.581 16.616 150.789 16.76 150.949 16.984C151.141 17.208 151.205 17.464 151.141 17.752C151.141 17.816 151.029 18.328 150.805 19.288C150.613 20.248 150.293 21.368 149.845 22.648C149.621 23.288 149.333 24.056 148.981 24.952C148.629 25.816 148.181 26.648 147.637 27.448C147.125 28.216 146.517 28.872 145.813 29.416C145.141 29.96 144.357 30.232 143.461 30.232C141.701 30.232 140.261 29.736 139.141 28.744C138.053 27.72 137.429 26.312 137.269 24.52C137.205 23.752 137.221 22.936 137.317 22.072C137.413 21.208 137.605 20.136 137.893 18.856C138.053 17.992 138.229 17.208 138.421 16.504C138.613 15.8 138.837 15.064 139.093 14.296C139.157 14.072 139.253 13.752 139.381 13.336C139.509 12.888 139.637 12.456 139.765 12.04C139.925 11.592 140.069 11.192 140.197 10.84C140.357 10.488 140.485 10.264 140.581 10.168C140.773 10.008 141.013 9.976 141.301 10.072C141.589 10.136 141.765 10.152 141.829 10.12C141.989 9.96 142.053 9.976 142.021 10.168V10.36C142.181 10.168 142.293 10.056 142.357 10.024C142.421 9.96 142.485 9.944 142.549 9.976C142.613 10.008 142.677 10.04 142.741 10.072C142.805 10.072 142.933 10.152 143.125 10.312L143.413 10.456L143.461 11.368C143.525 12.488 143.477 13.608 143.317 14.728C143.157 15.848 142.965 16.968 142.741 18.088C142.517 19.176 142.309 20.28 142.117 21.4C141.957 22.52 141.893 23.656 141.925 24.808C141.925 25.096 141.957 25.48 142.021 25.96C142.117 26.408 142.261 26.824 142.453 27.208C142.645 27.592 142.901 27.864 143.221 28.024C143.541 28.184 143.941 28.12 144.421 27.832C145.061 27.448 145.637 26.792 146.149 25.864C146.693 24.936 147.157 23.944 147.541 22.888C147.925 21.832 148.245 20.792 148.501 19.768C148.789 18.744 148.981 17.944 149.077 17.368C149.141 17.08 149.285 16.856 149.509 16.696C149.765 16.536 150.037 16.488 150.325 16.552ZM138.613 25.672C138.581 25.64 138.565 25.544 138.565 25.384C138.565 25.224 138.549 25.048 138.517 24.856C138.485 24.664 138.469 24.456 138.469 24.232C138.437 24.008 138.405 23.832 138.373 23.704V22.6V22.024C138.341 22.088 138.325 22.168 138.325 22.264C138.293 22.328 138.277 22.424 138.277 22.552C138.277 22.648 138.261 22.76 138.229 22.888C138.197 23.144 138.181 23.4 138.181 23.656C138.149 23.88 138.149 24.056 138.181 24.184C138.181 24.28 138.197 24.424 138.229 24.616C138.261 24.808 138.309 25 138.373 25.192C138.405 25.352 138.437 25.496 138.469 25.624C138.533 25.752 138.581 25.816 138.613 25.816V25.672ZM163.655 16.792C163.911 16.856 164.103 17.032 164.231 17.32C164.391 17.576 164.423 17.832 164.327 18.088C164.167 18.376 163.927 18.952 163.607 19.816C163.319 20.648 162.967 21.608 162.551 22.696C162.167 23.784 161.719 24.936 161.207 26.152C160.695 27.336 160.135 28.44 159.527 29.464C158.951 30.456 158.327 31.304 157.655 32.008C156.983 32.712 156.279 33.112 155.543 33.208C154.199 33.336 153.127 33.144 152.327 32.632C151.559 32.12 150.999 31.416 150.646 30.52C150.295 29.592 150.119 28.552 150.119 27.4C150.119 26.216 150.231 25.032 150.455 23.848C150.711 22.632 151.047 21.464 151.463 20.344C151.879 19.192 152.327 18.2 152.807 17.368C152.967 17.112 153.095 16.856 153.191 16.6C153.287 16.312 153.319 16.168 153.287 16.168C153.255 16.456 153.095 16.776 152.807 17.128C152.519 17.48 152.151 17.784 151.703 18.04C151.255 18.296 150.759 18.456 150.215 18.52C149.671 18.584 149.126 18.472 148.582 18.184C147.75 17.832 147.19 17.176 146.902 16.216C146.614 15.224 146.502 14.2 146.566 13.144C146.63 12.056 146.854 11.064 147.238 10.168C147.59 9.24 148.006 8.648 148.486 8.392C148.838 8.2 149.223 8.088 149.639 8.056C150.087 8.024 150.503 8.056 150.887 8.152C151.271 8.216 151.623 8.36 151.943 8.584C152.263 8.808 152.487 9.08 152.615 9.4C152.807 9.912 152.887 10.584 152.855 11.416C152.823 12.216 152.663 13.016 152.375 13.816C152.791 13.464 153.223 13.096 153.671 12.712C154.119 12.328 154.503 12.104 154.823 12.04C156.359 11.752 157.383 11.864 157.895 12.376C158.407 12.888 158.423 13.992 157.943 15.688C157.655 16.68 157.319 17.8 156.935 19.048C156.583 20.296 156.263 21.576 155.975 22.888C155.719 24.2 155.543 25.496 155.447 26.776C155.351 28.056 155.447 29.224 155.735 30.28C155.959 30.088 156.199 29.88 156.455 29.656C156.711 29.4 156.967 29.08 157.223 28.696C157.511 28.28 157.815 27.784 158.135 27.208C158.487 26.632 158.871 25.928 159.287 25.096C159.735 24.168 160.135 23.256 160.487 22.36C160.871 21.432 161.191 20.616 161.447 19.912C161.735 19.176 161.959 18.584 162.119 18.136C162.279 17.656 162.359 17.416 162.359 17.416C162.423 17.16 162.583 16.968 162.839 16.84C163.127 16.712 163.399 16.696 163.655 16.792ZM149.735 15.64C149.895 14.52 150.071 13.432 150.263 12.376C150.487 11.288 150.423 10.328 150.071 9.496C149.911 9.848 149.783 10.152 149.687 10.408C149.623 10.632 149.559 10.824 149.495 10.984C149.399 11.176 149.319 11.512 149.255 11.992C149.191 12.472 149.159 12.968 149.159 13.48C149.159 13.96 149.191 14.424 149.255 14.872C149.351 15.288 149.511 15.544 149.735 15.64ZM156.695 15.112C156.631 14.952 156.503 15.08 156.311 15.496C156.119 15.88 155.911 16.36 155.687 16.936C155.495 17.512 155.303 18.072 155.111 18.616C154.951 19.16 154.855 19.496 154.823 19.624C154.407 20.552 154.055 21.336 153.767 21.976C153.511 22.616 153.303 23.208 153.143 23.752C152.983 24.264 152.871 24.744 152.807 25.192C152.775 25.64 152.759 26.104 152.759 26.584V27.448L152.807 26.776C153.063 25.464 153.431 24.024 153.911 22.456C154.391 20.856 155.143 18.92 156.167 16.648C156.327 16.264 156.455 15.928 156.551 15.64C156.679 15.32 156.727 15.144 156.695 15.112ZM152.327 22.456C151.943 23.448 151.719 24.216 151.655 24.76C151.591 25.304 151.527 25.832 151.463 26.344C151.431 26.504 151.415 26.648 151.415 26.776C151.447 26.904 151.463 27.016 151.463 27.112V27.448C151.527 27.512 151.575 27.48 151.607 27.352C151.639 27.224 151.687 26.84 151.751 26.2C151.911 25.112 152.215 23.768 152.663 22.168C153.143 20.536 153.751 18.92 154.487 17.32C154.615 17.064 154.727 16.824 154.823 16.6C154.919 16.344 154.999 16.136 155.062 15.976C155.159 15.784 155.239 15.592 155.303 15.4C155.271 15.4 155.127 15.704 154.871 16.312C154.615 16.92 154.311 17.624 153.959 18.424C153.639 19.192 153.319 19.976 152.999 20.776C152.679 21.544 152.455 22.104 152.327 22.456Z" fill="white"/>
</svg>
